<svg width="80" height="80" viewBox="0 0 80 80" fill="none" xmlns="http://www.w3.org/2000/svg">
<g id="logo-white">
<g id="logo">
<g id="circle">
<mask id="path-1-inside-1_66_2" fill="white">
<path d="M40.5 78C61.763 78 79 60.763 79 39.5C79 18.237 61.763 1 40.5 1C19.237 1 2 18.237 2 39.5C2 60.763 19.237 78 40.5 78Z"/>
</mask>
<path d="M40.5 78C61.763 78 79 60.763 79 39.5C79 18.237 61.763 1 40.5 1C19.237 1 2 18.237 2 39.5C2 60.763 19.237 78 40.5 78Z" stroke="#F2F4FB" stroke-width="4.9" mask="url(#path-1-inside-1_66_2)"/>
</g>
<path id="triangle" d="M10.5145 56.812L40.4999 4.87591L70.4852 56.812H10.5145Z" stroke="#F2F4FB" stroke-width="2.45"/>
<path id="a-a" d="M29.2351 55.613C29.2351 55.613 29.2351 32.3704 29.2351 30.0889C29.2351 27.8074 30.2332 26.0963 32.9425 26.0963C35.6517 26.0963 36.9351 26.9519 36.9351 30.0889C36.9351 33.2259 36.9351 55.613 36.9351 55.613M27.0962 44.6333H37.648M43.7795 55.613C43.7795 55.613 43.7795 32.3704 43.7795 30.0889C43.7795 27.8074 44.6351 26.0963 47.3443 26.0963C50.0536 26.0963 51.3369 27.6648 51.3369 30.0889C51.3369 32.513 51.3369 55.613 51.3369 55.613M41.3555 44.6333H52.0499" stroke="#F2F4FB" stroke-width="2.45"/>
</g>
</g>
</svg>
