<svg width="70" height="70" viewBox="0 0 70 70" fill="none" xmlns="http://www.w3.org/2000/svg">
  <g id="help">
    <path id="Vector 322" d="M23.8709 56.2195L15.4636 65L5 54.7561L15.4636 44.5122M41.7742 18.1707L44.1935 15.7317M58.6446 20.8209L65 15.2439L54.8387 5L44.1935 15.7317M44.1935 15.7317L44.6774 12.8049L43.2258 10.8537L40.8064 11.3415L32.0967 20.122L29.6774 28.4146M15.4636 44.5122L20.9526 38.6585V53.7805L22.4193 56.2195H24.8387L25.8064 53.7805L26.3033 49.3902L26.7741 53.7805L27.7419 55.2439H29.6774L31.129 53.7805L31.4912 48.0643L32.0967 52.8049L33.0645 54.2683H35L35.9677 52.8049L36.5687 45.4878L36.9354 50.8537L38.3871 52.3171H39.8387L41.2903 50.8537V41.0976M15.4636 44.5122H12.258L11.2902 43.0488V40.6098L20.9526 31.8293L30.6451 28.4146L35 24.5122M37.4193 22.0732L39.3548 20.122M57.2581 20.122H50.9677L49.0322 21.5854V23.5366L50.9677 25H57.2581L59.1935 24.0244V21.0976L57.2581 20.122ZM47.0968 25.9756L45.1613 26.9512V29.3902L46.6129 30.3659H54.3548L55.8064 29.3902V26.9512L54.3548 25.9756H47.0968ZM43.2258 31.3415L41.7742 32.3171V34.2683L43.2258 35.2439H50L51.4516 34.2683V32.3171L50 31.3415H43.2258ZM41.7742 36.2195L39.8387 37.6829V39.6341L41.7742 41.0976H46.6129L48.5484 39.6341V37.6829L46.6129 36.2195H41.7742Z" stroke="#EAEEF8" stroke-width="2" stroke-linecap="round" stroke-linejoin="round"/>
  </g>
</svg>