<svg viewBox="0 0 1420 1080" fill="none" xmlns="http://www.w3.org/2000/svg"><g class="bg" clip-path="url(#a)"><path fill="#fff" d="M0 0h1420v1080H0z"/><g class="circ-center" filter="url(#b)"><path d="M897.753 517.085c-92.186 53.219-241.649 53.219-333.835 0-92.186-53.219-92.186-139.504 0-192.723 92.186-53.219 241.649-53.219 333.835 0 92.186 53.219 92.186 139.504 0 192.723Z" fill="url(#c)"/></g><g class="circ-top-left" filter="url(#d)"><path d="M435.25 386.919c-151.74 87.6-397.76 87.6-549.5 0s-151.74-229.627 0-317.226c151.74-87.6 397.76-87.6 549.5 0 151.74 87.599 151.74 229.626 0 317.226Z" fill="url(#e)"/></g><path class="circ-bot-rigth" d="M1495.96 896.984c-152.42 87.994-399.55 87.994-551.972 0-152.424-87.995-152.424-230.662 0-318.656 152.422-87.994 399.552-87.994 551.972 0 152.43 87.994 152.43 230.661 0 318.656Z" fill="url(#f)"/><path class="tri-center" d="M881.029 329.115 780.646 545.391 506.395 387.066l374.634-57.951Z" fill="url(#g)" fill-opacity=".5"/><g class="tri-bot-rigth" filter="url(#h)"><path d="m1468.31 586.187-165.97 357.599-453.462-261.781 619.432-95.818Z" fill="url(#i)" fill-opacity=".5"/></g><path class="tri-top-let" d="M407.723 77.516 242.49 433.511l-451.423-260.606 616.656-95.389Z" fill="url(#j)" fill-opacity=".5"/><path class="circ-top-rigth" d="M1366.27 279.542c-133.15 76.867-349.03 76.867-482.181 0-133.15-76.867-133.15-201.494 0-278.361 133.151-76.868 349.031-76.868 482.181 0 133.15 76.867 133.15 201.494 0 278.361Z" fill="url(#k)"/><g class="tri-top-rigth" filter="url(#l)"><path d="m1342.11 8.465-144.99 312.381L801.006 92.167 1342.11 8.465Z" fill="url(#m)" fill-opacity=".5"/></g><g class="tri-bot-left" filter="url(#n)"><path d="M610.715 678.079 421.427 1085.9-95.717 787.355l706.432-109.276Z" fill="url(#o)" fill-opacity=".5"/></g><path class="circ-bot-left" d="M642.25 1032.53c-173.832 100.35-455.668 100.35-629.5 0-173.832-100.356-173.832-263.061 0-363.414 173.832-100.353 455.668-100.353 629.5 0s173.832 263.058 0 363.414Z" fill="url(#p)"/><g class="bg-home-blur2_1" filter="url(#q)"><rect width="535.102" height="1109.33" rx="55" transform="matrix(.86603 .5 -.86603 .5 1266.71 258)" fill="url(#r)" fill-opacity=".3"/></g><g class="bg-home-blur2_2" filter="url(#s)"><rect width="535.102" height="875.793" rx="55" transform="matrix(.86603 .5 -.86603 .5 673.459 -128)" fill="url(#t)" fill-opacity=".3"/></g></g><defs><linearGradient id="c" x1="897.753" y1="324.362" x2="730.857" y2="613.459" gradientUnits="userSpaceOnUse"><stop stop-color="#EAF0FF"/><stop offset="1" stop-color="#E4E4E4" stop-opacity="0"/></linearGradient><linearGradient id="e" x1="435.25" y1="69.692" x2="160.536" y2="545.553" gradientUnits="userSpaceOnUse"><stop stop-color="#E0E1E2"/><stop offset="1" stop-color="#fff" stop-opacity="0"/></linearGradient><linearGradient id="f" x1="1495.96" y1="578.328" x2="1220.01" y2="1056.33" gradientUnits="userSpaceOnUse"><stop stop-color="#E0E0E0"/><stop offset="1" stop-color="#D2D3D5" stop-opacity="0"/></linearGradient><linearGradient id="g" x1="881.029" y1="329.115" x2="722.711" y2="603.354" gradientUnits="userSpaceOnUse"><stop stop-color="#D8D8D8"/><stop offset="1" stop-color="#9EA1A8" stop-opacity="0"/></linearGradient><linearGradient id="i" x1="1647.18" y1="492.082" x2="1290.38" y2="1118.19" gradientUnits="userSpaceOnUse"><stop stop-color="#97989C"/><stop offset="1" stop-color="#F3F7FF"/></linearGradient><linearGradient id="j" x1="407.723" y1="77.516" x2="147.128" y2="528.92" gradientUnits="userSpaceOnUse"><stop stop-color="#ECF0FD"/><stop offset="1" stop-color="#878787" stop-opacity="0"/><stop offset="1" stop-color="#DADADA" stop-opacity="0"/></linearGradient><linearGradient id="k" x1="1366.27" y1="1.181" x2="1125.21" y2="418.741" gradientUnits="userSpaceOnUse"><stop stop-color="#F1F2F3"/><stop offset="1" stop-color="#DFE0E0" stop-opacity="0"/></linearGradient><linearGradient id="m" x1="1342.11" y1="8.465" x2="1113.44" y2="404.565" gradientUnits="userSpaceOnUse"><stop stop-color="#C4D3FF"/><stop offset="1" stop-color="#BFBFBF" stop-opacity="0"/></linearGradient><linearGradient id="o" x1="610.715" y1="678.079" x2="312.18" y2="1195.2" gradientUnits="userSpaceOnUse"><stop stop-color="#2F4B9A"/><stop offset="1" stop-color="#2F4B9A" stop-opacity="0"/></linearGradient><linearGradient id="p" x1="642.25" y1="669.116" x2="327.541" y2="1214.26" gradientUnits="userSpaceOnUse"><stop stop-color="#EFEFEF"/><stop offset="1" stop-color="#EDEFF2" stop-opacity="0"/></linearGradient><linearGradient id="r" x1="535.102" y1="0" x2="-333.093" y2="418.788" gradientUnits="userSpaceOnUse"><stop stop-color="#2F4B9A"/><stop offset="1" stop-color="#2F4B9A"/></linearGradient><linearGradient id="t" x1="535.102" y1="0" x2="-244.186" y2="476.138" gradientUnits="userSpaceOnUse"><stop stop-color="#2F4B9A"/><stop offset="1" stop-color="#2F4B9A"/></linearGradient><filter id="b" x="310.778" y="100.447" width="840.115" height="640.552" filterUnits="userSpaceOnUse" color-interpolation-filters="sRGB"><feFlood flood-opacity="0" result="BackgroundImageFix"/><feGaussianBlur in="BackgroundImage" stdDeviation="92"/><feComposite in2="SourceAlpha" operator="in" result="effect1_backgroundBlur_22_2"/><feBlend in="SourceGraphic" in2="effect1_backgroundBlur_22_2" result="shape"/></filter><filter id="d" x="-246.055" y="-14.007" width="813.11" height="484.626" filterUnits="userSpaceOnUse" color-interpolation-filters="sRGB"><feFlood flood-opacity="0" result="BackgroundImageFix"/><feGaussianBlur in="BackgroundImage" stdDeviation="9"/><feComposite in2="SourceAlpha" operator="in" result="effect1_backgroundBlur_22_2"/><feBlend in="SourceGraphic" in2="effect1_backgroundBlur_22_2" result="shape"/></filter><filter id="h" x="830.878" y="568.187" width="655.434" height="393.599" filterUnits="userSpaceOnUse" color-interpolation-filters="sRGB"><feFlood flood-opacity="0" result="BackgroundImageFix"/><feGaussianBlur in="BackgroundImage" stdDeviation="9"/><feComposite in2="SourceAlpha" operator="in" result="effect1_backgroundBlur_22_2"/><feBlend in="SourceGraphic" in2="effect1_backgroundBlur_22_2" result="shape"/></filter><filter id="l" x="783.006" y="-9.535" width="577.106" height="348.38" filterUnits="userSpaceOnUse" color-interpolation-filters="sRGB"><feFlood flood-opacity="0" result="BackgroundImageFix"/><feGaussianBlur in="BackgroundImage" stdDeviation="9"/><feComposite in2="SourceAlpha" operator="in" result="effect1_backgroundBlur_22_2"/><feBlend in="SourceGraphic" in2="effect1_backgroundBlur_22_2" result="shape"/></filter><filter id="n" x="-113.717" y="660.079" width="742.432" height="443.823" filterUnits="userSpaceOnUse" color-interpolation-filters="sRGB"><feFlood flood-opacity="0" result="BackgroundImageFix"/><feGaussianBlur in="BackgroundImage" stdDeviation="9"/><feComposite in2="SourceAlpha" operator="in" result="effect1_backgroundBlur_22_2"/><feBlend in="SourceGraphic" in2="effect1_backgroundBlur_22_2" result="shape"/></filter><filter id="q" x="83.902" y="24.109" width="1868.31" height="1290" filterUnits="userSpaceOnUse" color-interpolation-filters="sRGB"><feFlood flood-opacity="0" result="BackgroundImageFix"/><feBlend in="SourceGraphic" in2="BackgroundImageFix" result="shape"/><feGaussianBlur stdDeviation="125" result="effect1_foregroundBlur_22_2"/></filter><filter id="s" x="-307.098" y="-361.891" width="1666.07" height="1173.23" filterUnits="userSpaceOnUse" color-interpolation-filters="sRGB"><feFlood flood-opacity="0" result="BackgroundImageFix"/><feBlend in="SourceGraphic" in2="BackgroundImageFix" result="shape"/><feGaussianBlur stdDeviation="125" result="effect1_foregroundBlur_22_2"/></filter><clipPath id="a"><path fill="#fff" d="M0 0h1420v1080H0z"/></clipPath></defs></svg>