<svg width="270" height="270" fill="none" xmlns="http://www.w3.org/2000/svg"><rect width="270" height="270" rx="135" transform="matrix(1 0 0 -1 0 270)" fill="#fff"/><path d="M55.243 46.816c-.981 0-1.472.506-1.472 1.518V61.72c0 .997.498 1.495 1.495 1.495h5.543c1.779 0 3.151-.43 4.117-1.288.966-.843 1.449-2.032 1.449-3.565 0-1.211-.314-2.216-.943-3.013-.629-.782-1.533-1.311-2.714-1.587.782-.245 1.426-.836 1.932-1.771l1.725-3.197c.26-.49.307-.943.138-1.357-.153-.414-.544-.621-1.173-.621-.414 0-.751.084-1.012.253-.26.184-.49.46-.69.828l-2.323 4.278c-.276.521-.606.866-.989 1.035-.368.184-.843.276-1.426.276h-2.185v-5.152c0-1.012-.49-1.518-1.472-1.518Zm1.472 8.855h3.588c2.147 0 3.22.874 3.22 2.622 0 1.733-1.073 2.599-3.22 2.599h-3.588v-5.221ZM71.103 47c-1.043 0-1.564.521-1.564 1.564v13.087c0 1.043.52 1.564 1.564 1.564h8.21c.798 0 1.197-.383 1.197-1.15 0-.797-.4-1.196-1.196-1.196h-6.946v-4.462h6.44c.797 0 1.196-.391 1.196-1.173s-.4-1.173-1.196-1.173h-6.44v-4.715h6.946c.797 0 1.196-.391 1.196-1.173S80.11 47 79.314 47h-8.211Zm19.68-.23c-1.686 0-3.135.337-4.346 1.012a6.987 6.987 0 0 0-2.76 2.898c-.644 1.257-.966 2.737-.966 4.439s.322 3.174.966 4.416a6.84 6.84 0 0 0 2.76 2.875c1.211.69 2.66 1.035 4.347 1.035.843 0 1.671-.107 2.484-.322.812-.215 1.525-.521 2.139-.92.398-.26.636-.575.713-.943a1.38 1.38 0 0 0-.138-.989 1.296 1.296 0 0 0-.76-.598c-.337-.092-.712 0-1.126.276a5.107 5.107 0 0 1-1.541.667 6.897 6.897 0 0 1-1.68.207c-1.64 0-2.89-.498-3.748-1.495-.859-.981-1.288-2.384-1.288-4.209 0-1.825.43-3.235 1.288-4.232.858-.997 2.108-1.495 3.749-1.495.582 0 1.157.069 1.725.207a6.222 6.222 0 0 1 1.61.69c.414.26.782.345 1.104.253a1.12 1.12 0 0 0 .713-.575 1.27 1.27 0 0 0 .16-.92c-.06-.337-.268-.636-.62-.897-.614-.445-1.35-.79-2.208-1.035a9.747 9.747 0 0 0-2.576-.345Zm14.829 0c-2.224 0-3.926.575-5.106 1.725-1.166 1.165-1.748 2.883-1.748 5.152v8.257c0 .997.49 1.495 1.472 1.495.981 0 1.472-.498 1.472-1.495V53.67c0-1.457.329-2.553.989-3.289.674-.72 1.648-1.081 2.921-1.081 2.591 0 3.887 1.457 3.887 4.37v8.234c0 .997.49 1.495 1.472 1.495.966 0 1.449-.498 1.449-1.495v-8.257c0-2.27-.575-3.987-1.725-5.152-1.15-1.15-2.845-1.725-5.083-1.725Zm11.713.046c-.981 0-1.472.506-1.472 1.518V61.72c0 .997.498 1.495 1.495 1.495h5.543c1.779 0 3.151-.445 4.117-1.334.966-.89 1.449-2.131 1.449-3.726 0-1.595-.483-2.844-1.449-3.749-.966-.89-2.338-1.334-4.117-1.334h-4.094v-4.738c0-1.012-.491-1.518-1.472-1.518Zm1.472 8.579h3.634c2.116 0 3.174.92 3.174 2.76 0 1.825-1.058 2.737-3.174 2.737h-3.634v-5.497ZM132.421 47c-1.043 0-1.564.521-1.564 1.564v13.087c0 1.043.521 1.564 1.564 1.564h8.211c.797 0 1.196-.383 1.196-1.15 0-.797-.399-1.196-1.196-1.196h-6.946v-4.462h6.44c.797 0 1.196-.391 1.196-1.173s-.399-1.173-1.196-1.173h-6.44v-4.715h6.946c.797 0 1.196-.391 1.196-1.173S141.429 47 140.632 47h-8.211Zm13.632-.184c-.982 0-1.472.506-1.472 1.518V61.72c0 .997.498 1.495 1.495 1.495h5.543c1.778 0 3.151-.43 4.117-1.288.966-.843 1.449-2.032 1.449-3.565 0-1.211-.315-2.216-.943-3.013-.629-.782-1.534-1.311-2.714-1.587.782-.245 1.426-.836 1.932-1.771l1.725-3.197c.26-.49.306-.943.138-1.357-.154-.414-.545-.621-1.173-.621-.414 0-.752.084-1.012.253-.261.184-.491.46-.69.828l-2.323 4.278c-.276.521-.606.866-.989 1.035-.368.184-.844.276-1.426.276h-2.185v-5.152c0-1.012-.491-1.518-1.472-1.518Zm1.472 8.855h3.588c2.146 0 3.22.874 3.22 2.622 0 1.733-1.074 2.599-3.22 2.599h-3.588v-5.221Zm12.692-8.855c-.537 0-.92.184-1.15.552-.23.368-.222.813.023 1.334l6.072 13.455c.199.445.437.759.713.943.291.2.621.299.989.299.353 0 .667-.1.943-.299.291-.184.537-.498.736-.943l6.095-13.455c.245-.537.261-.989.046-1.357-.215-.353-.583-.529-1.104-.529-.429 0-.767.1-1.012.299-.23.215-.437.537-.621.966l-1.15 2.668h-7.912l-1.127-2.668c-.199-.445-.406-.767-.621-.966-.215-.2-.521-.299-.92-.299Zm6.601 13.202-2.921-6.923h5.888l-2.921 6.923h-.046Zm17.56-13.248c-1.686 0-3.135.337-4.347 1.012a6.987 6.987 0 0 0-2.76 2.898c-.644 1.257-.966 2.737-.966 4.439s.322 3.174.966 4.416a6.84 6.84 0 0 0 2.76 2.875c1.212.69 2.661 1.035 4.347 1.035.844 0 1.672-.107 2.484-.322.813-.215 1.526-.521 2.139-.92.399-.26.637-.575.713-.943a1.376 1.376 0 0 0-.138-.989 1.293 1.293 0 0 0-.759-.598c-.337-.092-.713 0-1.127.276a5.104 5.104 0 0 1-1.541.667 6.893 6.893 0 0 1-1.679.207c-1.64 0-2.89-.498-3.749-1.495-.858-.981-1.288-2.384-1.288-4.209 0-1.825.43-3.235 1.288-4.232.859-.997 2.109-1.495 3.749-1.495.583 0 1.158.069 1.725.207a6.214 6.214 0 0 1 1.61.69c.414.26.782.345 1.104.253a1.12 1.12 0 0 0 .713-.575c.169-.276.223-.583.161-.92-.061-.337-.268-.636-.621-.897-.613-.445-1.349-.79-2.208-1.035a9.745 9.745 0 0 0-2.576-.345Zm-.299-4.255c-.291 0-.598.023-.92.069-.322.03-.613.092-.874.184-.306.107-.483.291-.529.552a.746.746 0 0 0 .184.667c.184.184.43.215.736.092a3.554 3.554 0 0 1 1.173-.184c.828 0 1.242.23 1.242.69 0 .353-.283.529-.851.529h-.345a3.446 3.446 0 0 1-.345-.069c-.214-.061-.391-.038-.529.069-.122.107-.161.307-.115.598l.253 1.748h1.541l-.23-1.334c.092.015.177.023.253.023.629 0 1.135-.146 1.518-.437.384-.291.575-.698.575-1.219 0-.598-.253-1.073-.759-1.426-.506-.368-1.165-.552-1.978-.552Zm8.212 4.301c-.536 0-.92.184-1.15.552-.23.368-.222.813.023 1.334l6.072 13.455c.2.445.437.759.713.943.292.2.621.299.989.299.353 0 .667-.1.943-.299.292-.184.537-.498.736-.943l6.095-13.455c.246-.537.261-.989.046-1.357-.214-.353-.582-.529-1.104-.529-.429 0-.766.1-1.012.299-.23.215-.437.537-.621.966l-1.15 2.668h-7.912l-1.127-2.668c-.199-.445-.406-.767-.621-.966-.214-.2-.521-.299-.92-.299Zm6.601 13.202-2.921-6.923h5.888l-2.921 6.923h-.046Zm-4.301 4.669c-.245.015-.437.1-.575.253-.138.153-.176.36-.115.621.184.859.537 1.518 1.058 1.978.537.475 1.181.713 1.932.713.43 0 .828-.077 1.196-.23.368-.153.721-.33 1.058-.529.338-.2.66-.376.966-.529.322-.153.637-.23.943-.23.399 0 .713.1.943.299.246.215.407.475.483.782.123.43.391.629.805.598.246-.015.437-.1.575-.253.138-.153.177-.36.115-.621-.184-.859-.536-1.526-1.058-2.001-.506-.46-1.142-.69-1.909-.69-.429 0-.835.077-1.219.23-.368.153-.72.33-1.058.529-.337.2-.667.376-.989.529-.306.153-.613.23-.92.23-.383 0-.697-.107-.943-.322a1.39 1.39 0 0 1-.483-.759c-.122-.43-.391-.629-.805-.598Zm21.586-17.917c-1.564 0-2.937.345-4.117 1.035-1.166.69-2.07 1.656-2.714 2.898-.644 1.257-.966 2.73-.966 4.416 0 1.702.322 3.174.966 4.416.644 1.242 1.548 2.2 2.714 2.875 1.165.69 2.537 1.035 4.117 1.035 1.579 0 2.951-.345 4.117-1.035 1.165-.675 2.07-1.633 2.714-2.875.644-1.242.966-2.706.966-4.393 0-1.702-.322-3.182-.966-4.439-.644-1.242-1.549-2.208-2.714-2.898-1.166-.69-2.538-1.035-4.117-1.035Zm0 2.53c1.487 0 2.645.514 3.473 1.541.828 1.027 1.242 2.453 1.242 4.278 0 1.84-.414 3.266-1.242 4.278-.813 1.012-1.971 1.518-3.473 1.518-1.488 0-2.645-.506-3.473-1.518-.828-1.012-1.242-2.438-1.242-4.278 0-1.825.414-3.25 1.242-4.278.828-1.027 1.985-1.541 3.473-1.541ZM180.411 202.994a13.153 13.153 0 0 0-1.21 2.781c-.285.951-.409 1.854-.372 2.708.023.42.161.748.414.983.254.236.538.373.851.413.335.034.617-.041.849-.226.252-.191.37-.503.356-.937a7.86 7.86 0 0 1 .315-2.289 9.954 9.954 0 0 1 .947-2.189c.607-1.048 1.221-1.711 1.843-1.989.635-.271 1.231-.245 1.788.078.465.269.73.652.795 1.151.074.485-.041 1.189-.345 2.112l-.809 2.455c-.913 2.802-.355 4.791 1.676 5.966.876.507 1.773.716 2.692.628.919-.088 1.796-.44 2.631-1.056.834-.615 1.562-1.46 2.185-2.535a9.75 9.75 0 0 0 1.014-2.442 7.574 7.574 0 0 0 .242-2.438c-.032-.373-.172-.667-.42-.881a1.316 1.316 0 0 0-.814-.338 1.15 1.15 0 0 0-.812.3c-.226.206-.339.54-.339 1a6.59 6.59 0 0 1-.267 1.839 8.211 8.211 0 0 1-.766 1.736c-.53.915-1.137 1.521-1.821 1.815-.685.295-1.339.262-1.963-.099-.477-.276-.77-.658-.878-1.146-.094-.48.002-1.15.288-2.012l.798-2.435c.482-1.475.608-2.704.38-3.687-.221-.996-.829-1.782-1.825-2.358-.836-.484-1.703-.684-2.601-.602-.898.083-1.768.439-2.61 1.067-.822.623-1.559 1.499-2.212 2.627Zm5.451-8.959c-.522.902-.332 1.614.571 2.137l11.326 6.555c.903.522 1.615.332 2.138-.57l4.112-7.107c.4-.69.268-1.227-.396-1.611-.69-.4-1.235-.254-1.634.436l-3.479 6.012-3.862-2.235 3.226-5.574c.399-.69.26-1.231-.417-1.623-.676-.392-1.215-.242-1.614.448l-3.226 5.574-4.081-2.362 3.48-6.012c.399-.69.26-1.231-.416-1.623-.677-.391-1.215-.242-1.615.448l-4.113 7.107Zm6.669-11.891c-.491.85-.299 1.528.577 2.035l11.585 6.705c.863.499 1.544.317 2.043-.546l2.777-4.797c.891-1.539 1.206-2.942.947-4.208-.246-1.259-1.033-2.272-2.36-3.04-1.048-.607-2.075-.838-3.08-.693-.992.152-1.903.67-2.733 1.554.18-.8-.009-1.653-.565-2.56l-1.903-3.094c-.294-.471-.662-.738-1.105-.799-.435-.075-.81.16-1.125.704-.208.358-.304.693-.288 1.003.028.318.152.655.371 1.012l2.539 4.153c.313.5.446.958.4 1.375-.025.41-.183.868-.475 1.372l-1.095 1.891-4.459-2.581c-.876-.506-1.559-.335-2.051.514Zm8.402 3.162 1.797-3.106c1.075-1.858 2.369-2.349 3.882-1.473 1.5.867 1.712 2.23.637 4.088l-1.798 3.106-4.518-2.615Zm1.838-20.856c-.391.677-.34 1.353.155 2.029l8.658 11.947c.381.504.79.732 1.226.683.457-.055.816-.308 1.077-.759.222-.385.301-.72.236-1.005-.044-.292-.193-.6-.448-.924l-7.457-10.029 12.431 1.48c.403.039.741.004 1.016-.103.287-.099.535-.328.742-.686.246-.425.271-.835.076-1.232-.188-.41-.593-.644-1.215-.703l-14.672-1.555c-.416-.046-.776-.006-1.079.119-.282.121-.531.367-.746.738Zm5.725-9.891c-.492.849-.3 1.527.576 2.034l11.725 6.786c.876.507 1.56.335 2.052-.514.491-.849.299-1.527-.577-2.034l-11.725-6.786c-.876-.507-1.56-.336-2.051.514Zm6.253-10.897c-.845 1.46-1.279 2.883-1.302 4.269a7 7 0 0 0 1.126 3.841c.766 1.187 1.885 2.207 3.358 3.059 1.473.853 2.909 1.312 4.306 1.376a6.84 6.84 0 0 0 3.871-.948c1.204-.703 2.228-1.785 3.073-3.244.423-.73.744-1.501.966-2.312.221-.81.313-1.581.275-2.312-.026-.475-.179-.839-.459-1.089a1.377 1.377 0 0 0-.925-.376c-.337 0-.636.119-.898.357-.249.246-.357.617-.326 1.114a5.093 5.093 0 0 1-.194 1.668 6.901 6.901 0 0 1-.662 1.557c-.822 1.42-1.879 2.252-3.172 2.496-1.279.251-2.709-.08-4.288-.994-1.579-.914-2.585-1.992-3.018-3.235-.432-1.242-.237-2.573.584-3.993.292-.504.64-.968 1.044-1.389a6.167 6.167 0 0 1 1.403-1.048c.433-.228.691-.504.772-.829a1.12 1.12 0 0 0-.14-.905 1.27 1.27 0 0 0-.716-.6c-.323-.116-.685-.087-1.087.088-.692.308-1.36.772-2.002 1.392a9.759 9.759 0 0 0-1.589 2.057Zm-3.833-1.872a6.601 6.601 0 0 0-.401.83 3.701 3.701 0 0 0-.278.849c-.061.319.01.564.213.734a.74.74 0 0 0 .669.175c.251-.067.401-.264.448-.591.071-.366.214-.736.429-1.107.414-.717.821-.96 1.219-.729.305.176.316.51.032 1.001a87.99 87.99 0 0 0-.173.299 3.507 3.507 0 0 1-.233.264c-.16.155-.229.319-.205.492.031.16.185.293.46.399l1.64.657.771-1.334-1.269-.469c.059-.072.108-.141.146-.208.315-.544.443-1.055.382-1.532-.06-.478-.315-.847-.767-1.109-.517-.299-1.055-.318-1.614-.057-.572.254-1.062.732-1.469 1.436Zm11.255-10.953c-.783 1.354-1.172 2.714-1.166 4.082.013 1.354.396 2.621 1.148 3.801.766 1.187 1.879 2.203 3.339 3.048 1.473.852 2.908 1.311 4.306 1.376 1.397.064 2.68-.239 3.847-.909 1.181-.663 2.167-1.678 2.958-3.045.792-1.367 1.18-2.728 1.167-4.082 0-1.347-.377-2.61-1.129-3.789-.752-1.18-1.859-2.192-3.318-3.037-1.473-.852-2.915-1.315-4.326-1.387-1.398-.065-2.687.234-3.868.897s-2.167 1.678-2.958 3.045Zm2.19 1.268c.745-1.288 1.769-2.032 3.073-2.234 1.304-.203 2.746.153 4.325 1.067 1.592.922 2.619 1.995 3.08 3.218.469 1.21.327 2.466-.425 3.766-.745 1.288-1.763 2.036-3.054 2.246-1.29.21-2.732-.146-4.325-1.068-1.579-.914-2.606-1.986-3.08-3.218-.474-1.231-.339-2.49.406-3.777ZM49.383 134.016c-1.106-1.928-2.452-3.118-4.037-3.57-1.591-.43-3.37-.081-5.339 1.049l-7.161 4.11c-.864.496-1.052 1.17-.564 2.021.489.851 1.165 1.028 2.03.532l7.14-4.098c1.264-.726 2.38-.985 3.346-.78.96.226 1.758.892 2.391 1.995 1.29 2.248.672 4.097-1.855 5.547l-7.141 4.099c-.865.496-1.053 1.169-.564 2.02.48.838 1.153 1.009 2.018.513l7.161-4.11c1.968-1.13 3.171-2.483 3.61-4.061.425-1.57.08-3.325-1.035-5.267Zm5.746 10.102c-.458-.798-1.1-.96-1.924-.487l-11.87 6.812c-.411.237-.667.516-.765.838-.104.342-.06.68.13 1.012.176.306.365.498.57.575.197.099.49.178.878.238l13.323 1.821-8.757 5.026c-.81.466-.987 1.097-.53 1.895.45.785 1.082.944 1.893.479l11.968-6.87c.373-.213.612-.474.718-.783.106-.308.067-.622-.116-.941-.175-.306-.377-.517-.603-.635-.219-.104-.522-.186-.91-.246l-13.344-1.809 8.777-5.038c.825-.473 1.012-1.102.562-1.887Zm8.61 15.002c-.489-.851-1.172-1.025-2.05-.521l-11.749 6.743c-.877.504-1.072 1.182-.584 2.033.489.851 1.172 1.024 2.05.521l11.749-6.744c.878-.503 1.072-1.181.584-2.032Zm3.117 5.801c-.519-.904-1.23-1.097-2.135-.578l-11.35 6.515c-.904.519-1.097 1.23-.578 2.135l2.221 3.87c1.351 2.354 2.998 3.821 4.94 4.404 1.951.595 4.057.244 6.318-1.054 2.247-1.29 3.613-2.931 4.096-4.923.49-1.979.06-4.145-1.29-6.499l-2.222-3.87Zm-1.427 2.411 1.442 2.513c1.863 3.245 1.151 5.81-2.133 7.695-3.272 1.878-5.839 1.194-7.701-2.051l-1.443-2.513 9.835-5.644Zm9.442 11.183c-.267-.465-.618-.706-1.052-.722-.433-.017-.815.211-1.145.684l-8.647 11.964c-.287.394-.44.756-.463 1.087-.028.352.05.688.233 1.007.175.306.418.529.729.669.304.161.699.217 1.184.169l14.703-1.412c.588-.054.988-.266 1.2-.635.2-.362.169-.769-.09-1.221-.214-.372-.469-.615-.764-.729-.3-.092-.683-.112-1.147-.058l-2.886.331-3.938-6.862 1.753-2.306c.286-.394.462-.734.528-1.019.066-.285 0-.601-.198-.947Zm-8.165 12.297 4.55-5.979 2.932 5.106-7.459.913-.023-.04Zm17.223 3.856c-.519-.905-1.23-1.097-2.135-.578l-11.35 6.514c-.905.519-1.097 1.231-.578 2.135l2.22 3.87c1.352 2.354 2.999 3.822 4.942 4.404 1.95.596 4.056.244 6.317-1.053 2.247-1.29 3.612-2.931 4.096-4.923.49-1.979.06-4.145-1.29-6.499l-2.222-3.87Zm-1.427 2.41 1.442 2.514c1.862 3.245 1.151 5.81-2.133 7.695-3.272 1.878-5.839 1.194-7.701-2.051l-1.443-2.513 9.835-5.645Zm10.148 12.784c-.519-.904-1.23-1.096-2.135-.577l-11.35 6.514c-.905.519-1.097 1.231-.578 2.135l4.087 7.121c.397.692.928.847 1.593.465.691-.397.839-.941.442-1.632l-3.458-6.025 3.87-2.221 3.206 5.586c.397.691.934.842 1.612.453.679-.389.82-.93.422-1.621l-3.205-5.586 4.09-2.347 3.457 6.025c.397.691.934.842 1.612.453.679-.389.82-.93.422-1.621l-4.087-7.122Z" fill="#2F4B9A"/><mask id="a" fill="#fff"><path d="M135 0c74.558 0 135 60.442 135 135 0 74.558-60.442 135-135 135C60.442 270 0 209.558 0 135 0 60.442 60.442 0 135 0Z"/></mask><path d="M135 0c74.558 0 135 60.442 135 135 0 74.558-60.442 135-135 135C60.442 270 0 209.558 0 135 0 60.442 60.442 0 135 0Z" stroke="#2F4B9A" stroke-width="16" mask="url(#a)"/><path fill-rule="evenodd" clip-rule="evenodd" d="M247.583 70 135 265 22.416 70h225.167ZM99 168c0 3.566.79 6.14 2.137 7.773 1.246 1.51 3.393 2.727 7.363 2.727 4.56 0 6.899-.762 8.194-1.952C117.921 175.42 119 173.159 119 168V120.5H99V168Zm20-54.73v.23H99V78.501l-3.5-.001H92v35h-4v7h4V168c0 4.434.96 8.86 3.737 12.227 2.88 3.49 7.232 5.273 12.763 5.273 4.94 0 9.6-.738 12.93-3.798 3.399-3.122 4.57-7.861 4.57-13.702V78.501l-3.5-.001H119V113.27ZM150 168c0 3.666.706 6.246 1.954 7.856 1.113 1.436 3.083 2.644 7.046 2.644 4.072 0 6.544-1.162 8.023-2.721 1.51-1.592 2.477-4.114 2.477-7.779V120.5H150V168Zm19.5-54.623v.123H150V78.501l-3.5-.001H143V113.5h-5v7h5V168c0 4.334.794 8.754 3.421 12.144 2.762 3.564 7.041 5.356 12.579 5.356 5.427 0 9.956-1.588 13.101-4.904 3.115-3.283 4.399-7.761 4.399-12.596V78.501L173 78.5h-3.5V113.378Z" fill="#2F4B9A"/></svg>