<svg width="72" height="72" fill="none" xmlns="http://www.w3.org/2000/svg"><rect width="72" height="72" rx="36" fill="#FAFBFE"/><circle cx="36" cy="36" r="36" fill="#fff"/><path d="M18.422 47.692s8.896-15.905 11.66-18.048c2.764-2.143 4.59-2.09 8.021-1.188l4.456-6.313M18.422 47.692l1.93 1.336m-1.93-1.336H13m29.56-25.55.823.595m-.824-.594c-1.012-1.707-.816-2.113 1.114-1.708l.669.46m2.748 4.516-4.308 6.164c2.255 3.311 2.72 5.166 1.486 8.467-1.235 3.3-5.942 8.095-5.942 8.095m8.764-22.726-.817-.59m.817.59c1.84.382 2.175.04 1.337-1.709l-.669-.46m-9.432 24.895s-1.027 1.006-1.857 1.337c-1.266.505-1.94.537-3.49 0m5.347-1.337s-.668.315.965-.445c1.634-.761 4.085 0 4.085 0M32.98 49.474s-1.857-1.337-2.823-1.782c-.965-.446-1.708-.39-2.748 0-1.04.39-1.992 1.323-3.639 2.005-1.647.682-2.302 0-2.302 0l-1.114-.669m12.626.446 8.392-6.09-1.782-1.411m-19.236 7.055 16.859-12.18m0 0c.646-.324.989-.334 1.56 0 .57.335 1.55 1.193 1.93 2.303.2.581.28.948.223 1.56m-3.713-3.863.223 2.08m3.49 1.782-1.336 1.263m1.336-1.263c-1.615.057-2.168-.419-2.376-2.376l-1.114.594m2.154 3.045c-1.104-1.091-1.559-1.764-2.154-3.045m5.948-16.191-.6.965 2.821 2.006.669-.887m-2.89-2.084 2.89 2.084m-1.931-3.927 1.93-3.653c.246-.303.396-.28.67-.149l3.267 2.377c.358.268.383.433.223.743l-2.674 3.03m-3.416-2.348 3.416 2.349" stroke="#2F4B9A" stroke-width="2" stroke-linecap="round" stroke-linejoin="round"/></svg>